<?xml version="1.0" standalone="no"?>
<!DOCTYPE svg PUBLIC "-//W3C//DTD SVG 20010904//EN"
 "http://www.w3.org/TR/2001/REC-SVG-20010904/DTD/svg10.dtd">
<svg version="1.0" xmlns="http://www.w3.org/2000/svg"
 width="1676.000000pt" height="1559.000000pt" viewBox="0 0 1676.000000 1559.000000"
 preserveAspectRatio="xMidYMid meet">

<g transform="translate(0.000000,1559.000000) scale(0.100000,-0.100000)"
fill="#000000" stroke="none">
<path d="M4135 15578 c-7 -20 -1505 -5636 -1505 -5643 0 -3 585 -5 1299 -5
l1299 0 6 23 c3 12 347 1284 766 2826 418 1542 760 2805 760 2807 0 2 -590 4
-1310 4 -1040 0 -1312 -3 -1315 -12z"/>
<path d="M10917 15583 c-2 -5 -402 -1481 -888 -3280 l-883 -3273 -2836 -3
-2835 -3 -93 -21 c-343 -82 -640 -255 -898 -526 -201 -210 -327 -419 -408
-677 -42 -133 -2076 -7702 -2076 -7725 0 -13 146 -15 1297 -13 l1296 3 849
3179 c467 1749 850 3181 852 3183 1 2 936 2 2078 1 l2075 -3 -848 -3175 c-467
-1746 -849 -3178 -849 -3182 0 -5 584 -8 1298 -8 l1299 0 54 203 c30 111 417
1551 860 3199 l804 2998 1358 0 1357 0 0 -22 c0 -13 23 -783 50 -1713 49
-1675 50 -1702 129 -3135 45 -795 83 -1478 87 -1518 l6 -72 1354 0 1354 0 0
78 c0 42 -166 3346 -370 7342 -262 5152 -374 7290 -385 7350 -56 300 -218 549
-449 689 -67 40 -150 75 -254 104 l-77 22 -2152 3 c-1183 1 -2154 -1 -2156 -5z
m2730 -4538 c28 -979 53 -1837 55 -1908 l3 -127 -979 0 c-778 0 -977 3 -973
13 2 6 233 863 512 1902 279 1040 509 1893 512 1898 2 4 187 6 411 5 l407 -3
52 -1780z"/>
</g>
</svg>
